<svg xmlns="http://www.w3.org/2000/svg" id="svg34" viewBox="0 0 369.37 134.01" width="160" height="58">
  <defs id="defs4"/>
  <path id="polygon14" fill="#0d2d5c" d="M153.7207.3496l-12.9512 80.6309h17.4414L160.8496 64.5l3.4805-2.8906 12.039 19.371h21.7012l-19.7812-30.83 27.5703-22.8008h-23.4297l-17.9805 15 6.711-42h-17.4395zm-38.42 24.9902c-4.67 0-9.4602 1.5394-14.3202 4.6094l.4199-2.5996h-17.5l-13.1309 81.8711H88.211l5-30.8398A19.85 19.85 0 0 0 105.7207 83a30 30 0 0 0 14.08-3.539 35.42 35.42 0 0 0 12-10.2208 32.74 32.74 0 0 0 6.7696-19.791A24.67 24.67 0 0 0 134 34.381c-4.5933-6.0267-10.8259-9.041-18.6992-9.041zm118.3184 0a30 30 0 0 0-14.0898 3.541 35.62 35.62 0 0 0-12 10.2188 32.74 32.74 0 0 0-6.7695 19.791A24.61 24.61 0 0 0 205.3906 74c4.55 6 10.7887 9 18.6387 9 4.73 0 9.4703-1.5294 14.3203-4.6094l-.42 2.5996h17.4395L264 27.3496h-17.4394l-.42 2.5996a19.78 19.78 0 0 0-12.5215-4.6094zM21.7598 27.3496L11.5703 90.7891c-.48 3-1.1398 4-2.7598 4A18.57 18.57 0 0 1 2.5195 93L0 108.8594a26.79 26.79 0 0 0 9.1094 1.7812A19.45 19.45 0 0 0 21 106.8008c4.13-3.19 6.7702-8.3313 7.9102-15.3613l10.3496-64.0899h-17.5zm31 0L44.119 80.9805h17.4414l8.629-53.6309H52.7598zm180.8379 13.4668a10.08 10.08 0 0 1 6.4824 2.7734A10.36 10.36 0 0 1 242.6699 51a17.41 17.41 0 0 1-4.0195 11.789 12.91 12.91 0 0 1-10.1309 4.7305 9.7 9.7 0 0 1-7.3691-2.9004c-1.74-1.77-2.6406-4.3086-2.6406-7.5586a17.2 17.2 0 0 1 4.08-11.58 12.69 12.69 0 0 1 10-4.6602 10.08 10.08 0 0 1 1.0079-.0039zm-122.8223.004a12.72 12.72 0 0 1 .0352 0 9.82 9.82 0 0 1 7.4296 2.8905c1.74 1.77 2.6407 4.25 2.6407 7.5a17.09 17.09 0 0 1-4.0801 11.5782 13.1 13.1 0 0 1-10.1914 4.7304 10.08 10.08 0 0 1-7.3692-2.7793c-1.73-1.77-2.5703-4.25-2.5703-7.5a17.45 17.45 0 0 1 4.0703-11.7597 12.72 12.72 0 0 1 10.0352-4.6602zm164.5351 55.8593L271 124h4.67l.9198-5.7305 2-1.6992L283.1992 124H289l-6.6992-10.5 9.0097-7.6894h-6.1601l-7.6113 6.5L280 96.6796h-4.6895zm58.7598 0L329.7403 124h4.6699l.9199-5.7305 2-1.6992L341.9297 124h5.75L341 113.5l9.039-7.6602h-6.1484l-7.621 6.5 2.4902-15.6601h-4.6895zm-124.4707.1601a3.45 3.45 0 0 0-2.4297 1 3.09 3.09 0 0 0-1 2.3204 2.4 2.4 0 0 0 2.5098 2.4296 3.26 3.26 0 0 0 2.7597-1.4394 3.13 3.13 0 0 0 .6602-1.8906 2.4 2.4 0 0 0-2.459-2.42h-.041zm91.8106 8.3711l.0097.0293a11.11 11.11 0 0 0-5.1308 1.2207 12.2 12.2 0 0 0-4.209 3.629 10.39 10.39 0 0 0-2.1192 6.3808 8.2 8.2 0 0 0 1.5391 5 7.8 7.8 0 0 0 6.6992 3.1797 10.84 10.84 0 0 0 5-1.2207 11.23 11.23 0 0 0 4.211-3.6504 10.82 10.82 0 0 0 2.1504-6.3887 8.07 8.07 0 0 0-1.5704-5 7.74 7.74 0 0 0-6.58-3.1797zm-78.041.0293a10.8 10.8 0 0 0-5 1.2207 11.74 11.74 0 0 0-4.1895 3.629 10.84 10.84 0 0 0-2.1406 6.4003 8.27 8.27 0 0 0 1.541 5 7.75 7.75 0 0 0 6.5898 3.1797 9.06 9.06 0 0 0 5.17-1.7597L225.1991 124h4.67l2.9003-18.1602h-4.6699L227.9004 107a6.74 6.74 0 0 0-4.5313-1.7598zm136.621 0a10.77 10.77 0 0 0-5 1.2207 11.74 11.74 0 0 0-4.1894 3.629 10.85 10.85 0 0 0-2.1504 6.4003 8.21 8.21 0 0 0 1.5488 5 7.75 7.75 0 0 0 6.5899 3.1797 9.06 9.06 0 0 0 5.1718-1.7597l-.1816 1.1601h4.6816l2.9082-18.2305h-4.6699L364.5195 107a6.74 6.74 0 0 0-4.5293-1.7598zM236 105.8106L235.3398 110h8.7403l-11 10.5703-.541 3.4395h15.8906l.6601-4.1992h-9.6406l10.92-10.5313.5605-3.4688H236zm31 0l-7 11.6288-3-11.5996h-5.0898l4.7695 17.3204-6.3106 10.4394h4.9317l16.7793-27.789H267zm-61.1894.0292l-3.4708 22c-.22 1.36-.4992 1.7598-1.1992 1.7598a7.69 7.69 0 0 1-2.0703-.4394l-.7012 4.4101a8.63 8.63 0 0 0 2.6309.459 5.35 5.35 0 0 0 4.289-1.9395 8.58 8.58 0 0 0 1.7208-4.25l3.4902-22h-4.6894zm105.1601 0l5 18.1993h4.1094l10.7695-18.1993h-5.0898l-6.6602 11.4708-3-11.4708h-5.1289zm-87.9902 3.6153a4 4 0 0 1 3.0488 1.584 4.63 4.63 0 0 1 .7402 2.7304 6.56 6.56 0 0 1-2.1894 5.17A5.27 5.27 0 0 1 221 120.4003a3.86 3.86 0 0 1-3.42-1.6504 4.42 4.42 0 0 1-.75-2.6602 6.82 6.82 0 0 1 1.709-4.6796 5.25 5.25 0 0 1 4.0919-1.92l-.0508-.0293a4 4 0 0 1 .4004-.0058zm77.9472.0293a4.07 4.07 0 0 1 3.1016 1.6054 4.57 4.57 0 0 1 .7598 2.711 6.6 6.6 0 0 1-2.1993 5.1699 5.4 5.4 0 0 1-3.6894 1.4297 3.92 3.92 0 0 1-3.4512-1.6504 4.52 4.52 0 0 1-.7383-2.6894 7.1 7.1 0 0 1 1-3.7208 5.76 5.76 0 0 1 4.8086-2.8496 4.07 4.07 0 0 1 .4082-.0058zm58.7012 0a4 4 0 0 1 3.0508 1.586 4.63 4.63 0 0 1 .7402 2.7304 6.56 6.56 0 0 1-2.1894 5.1699 5.27 5.27 0 0 1-3.6309 1.4297 3.89 3.89 0 0 1-3.4297-1.6504 4.56 4.56 0 0 1-.7402-2.6602 6.82 6.82 0 0 1 1.711-4.6796 5.23 5.23 0 0 1 4.0898-1.92 4 4 0 0 1 .3984-.0058z"/>
  <path id="path24" fill="#e61e53" d="M172.45 102.42a3.18 3.18 0 0 0 .63.09c1.21 0 2.34-.89 3-2.51a3.63 3.63 0 0 0 .36-1.34 1.51 1.51 0 0 0-1.44-1.57h-.45c-1.12 0-2 .76-2.33 2.33a4.87 4.87 0 0 0-.45 1.93 1.08 1.08 0 0 0 .68 1.07zM40.5508-.0605c-9.01 0-15.9317 7.29-17.9317 21l15-.0801C37.8191 16.3594 39.4 14 41.75 14c3.62 0 9.0702 8 18.1602 8s15.6193-7.91 17.7793-21H62.8594c-.2 4.48-1.749 7-4.129 7-4.8 0-9.1696-8.0605-18.1796-8.0605zm116.1601 104.7714a1.82 1.82 0 0 0-1.5215 1.17 1.71 1.71 0 0 0-1-.3106A5 5 0 0 0 151 107.2695a16.05 16.05 0 0 0-3.6309 5.25 17.8 17.8 0 0 0-.7187 2 50.45 50.45 0 0 1-4.4395 4.1504c-2 1.65-3.36 2.461-4.08 2.461-.31 0-.4512-.2209-.4512-.6309v-.1309s.0498-.2699.0898-.6699a48.83 48.83 0 0 1 2-6c1.12-3.27 1.5212-4.3494 1.7012-5.1094a2.49 2.49 0 0 0 .1796-1 2.18 2.18 0 0 0-2.1113-2.1894c-1.79 0-5.1085 2.6396-9.2285 7.3496a18.24 18.24 0 0 0 1-5c0-1.75-.8114-2.7305-2.1914-2.7305-2.16 0-5.9998 3.2703-10.0898 8.8203.22-.58.7106-1.6505 1.3906-3.3105a24.15 24.15 0 0 0 1.1191-3.1387v-.4902a1.64 1.64 0 0 0-1.5683-1.791c-.94 0-1.6601.8015-1.8301 2.1015-.19.67-.4107 1.4282-.7207 2.3282-.31.9-.8603 2.3814-1.5703 4.4414-1.08 2.91-1.5297 4.1687-1.9297 5.4687-1.08 2-1.4395 3.0013-1.4395 3.8613v.129A1.46 1.46 0 0 0 114 124.8007a2.24 2.24 0 0 0 2.0605-1.8809c.14-.4.229-.8904.539-2.1504a60.78 60.78 0 0 1 6.3712-8.3886c2.19-2.38 3.7185-3.5918 4.4785-3.5918a.65.65 0 0 1 .5.7207 17.61 17.61 0 0 1-1.3496 5c-.9 2.47-1.3487 3.7293-1.3887 3.8593a11.06 11.06 0 0 0-1.4805 4.4414 1.19 1.19 0 0 0 .3594 1 1.88 1.88 0 0 0 1.08.4004 2.47 2.47 0 0 0 2.1895-2c.41-1.57.7711-2.7313 1.1211-3.8613a61.41 61.41 0 0 1 5.6504-6.2305c1.84-1.7 3.0067-2.5488 3.5-2.5488.13 0 .1797 0 .1797.17v.0897c-.05.41-.32 1.0003-1.08 3.3203a44.92 44.92 0 0 0-2.2403 7.1797 8.27 8.27 0 0 0-.17 1.5703 2.79 2.79 0 0 0 .2598 1.2989 2 2 0 0 0 1.9297 1.3007c1.2134 0 2.916-.8538 5.1094-2.5605a37.82 37.82 0 0 0 4.2207-3.8594c0 .18-.0798.3708-.0898.5508v.4492c0 3.45 2.0003 5.6895 5.0703 5.6895 2.87 0 5.7395-1.6602 7.9395-4.6602a15.85 15.85 0 0 0 3.2695-8.7988v-.4004a1.27 1.27 0 0 0-.0488-.4492h1.3496a28.57 28.57 0 0 0 5.8809-.5508l-.3106 1c-.32.94-.7696 2.4691-1.3496 4.6191-.76 2.74-1.3012 4.7506-1.7012 6.0606-.4 1.31-.8089 2.4194-1.1289 3.3594-1.12 3.23-2.3314 4.8007-3.9414 5.4707a10.13 10.13 0 0 1-1.209-.7207c-1.08-.67-1.48-.8496-2-.8496A1.68 1.68 0 0 0 156 130.369v.0918c0 .05.0498.1782.0898.4082.36 1.29 2.3796 2.5 4.3496 2.5 3.19 0 5.5606-2.28 7.3106-7.08.41-1 .8097-2.1882 1.2597-3.5782.45-1.39.9999-3.5917 1.8399-6.5117 1-3.59 1.3411-4.75 1.7011-5.83a9.43 9.43 0 0 0 .8086-3.3594c.04-1.01-.4587-1.67-1.2187-1.67a3 3 0 0 0-2.5 2.0997c-1.18.11-2.47.1914-3.92.1914-1.61 0-3.1302-.091-4.5702-.1309a5.24 5.24 0 0 0-4.4395-2.789zm29.1836.0957a3.74 3.74 0 0 0-.1152.004c-1.79 0-3.7202.9999-5.7402 3.0899a19.62 19.62 0 0 0-4.6192 7.2597c-.05.26-.1095.4691-.2695 1.0391a11.49 11.49 0 0 0-.541 3.4512 5.4 5.4 0 0 0 1.121 3.6797 5.11 5.11 0 0 0 4.6602 2.2793c2.07 0 4.4487-.8985 7.1387-2.7285a34.73 34.73 0 0 0 7.3008-6.6407 4.94 4.94 0 0 0 1.3906-2.83c0-.36-.1313-.5294-.3613-.5294a1.46 1.46 0 0 0-.8887.4883c-5.21 5.61-10.36 9.0614-14 9.1114-2 0-3-.9997-3-3.0997v-.2714a8 8 0 0 1 .4902-2.5996c5.79-1.3 10.05-3.7707 11-6.6407a4.52 4.52 0 0 0 .2188-1.2597 3.74 3.74 0 0 0-3.7852-3.8028zm-30.4843 2.6133a5.08 5.08 0 0 0 3.3203 2.5899 2.7 2.7 0 0 1 .0488.7207v.6093a12 12 0 0 1-2.5586 6.7793c-1.66 2.29-3.3217 3.46-4.9317 3.5-1.4 0-2.1191-.9991-2.1191-2.8691a9.61 9.61 0 0 1 .2695-2.1094 17.45 17.45 0 0 1 4.0899-7.2207 6.22 6.22 0 0 0 1.8808-2zm30.4062.379a.86.86 0 0 1 .8145 1.0019 2 2 0 0 1-.0918.6289c-.58 1.39-3.3584 3.1397-6.8184 4.2597a17.3 17.3 0 0 1 3.0996-4.1796c1.16-1.12 2.1502-1.709 2.9102-1.709a.86.86 0 0 1 .0859-.002z"/>
</svg>